<svg width="204" height="38" viewBox="0 0 204 38" fill="none" xmlns="http://www.w3.org/2000/svg">
<path d="M36.6562 8.25092L35.0457 25.9205C34.4864 29.502 32.9977 29.956 31.6566 29.6543C30.3155 29.3526 30.0549 28.0583 29.9213 25.6355C29.8231 23.8556 29.7992 14.2898 30.0945 9.35176C21.8246 10.3576 12.4911 10.3742 6.50336 10.4472C7.07526 13.9552 6.93437 18.2619 6.84919 20.1483C7.42543 20.3042 25.1825 28.6817 26.7431 29.5323C28.3038 30.3829 29.1406 31.8332 28.4356 33.0053C27.7306 34.1773 25.3119 33.5472 24.2852 33.2286C19.2009 31.3839 5.95281 27.2246 5.33267 26.9589C4.5575 26.6268 2.43093 25.8067 1.20651 24.1904C0.226973 22.8973 0.117136 20.4483 0.18466 19.3855C0.258037 16.1417 0.0898408 10.8045 0.0158356 9.46269C-0.0766709 7.78541 0.207431 6.07524 1.63512 4.51569C3.06281 2.95614 4.94933 2.85461 6.64719 2.76322C15.1366 2.3063 27.7029 1.66734 29.6731 1.71083C32.1359 1.7652 33.9397 1.9449 35.2365 3.09365C36.4301 4.15091 36.7318 6.19076 36.6562 8.25092Z" fill="#4A00E8"/>
<path d="M51.1441 29.8793C49.2693 29.8793 47.7943 29.6527 46.7193 29.1994C45.6573 28.7331 44.9034 28.2345 44.4577 27.7035L45.913 24.0123C47.5911 25.3851 49.3742 26.0716 51.2621 26.0716C52.1143 26.0716 52.7436 25.9032 53.15 25.5665C53.5696 25.2168 53.7793 24.7894 53.7793 24.2843C53.7793 23.7403 53.4188 23.2417 52.6977 22.7883C51.9897 22.3221 50.9343 21.7846 49.5315 21.1759C48.6269 20.7873 47.8402 20.3793 47.1716 19.9519C46.5029 19.5245 45.9195 18.9482 45.4213 18.2229C44.9362 17.4847 44.6937 16.591 44.6937 15.5419C44.6937 14.3763 44.9821 13.3596 45.559 12.4918C46.1489 11.6241 47.0011 10.9571 48.1155 10.4908C49.2299 10.0245 50.5672 9.79141 52.1274 9.79141C53.0583 9.79141 53.9301 9.89502 54.743 10.1023C55.5689 10.2965 56.2704 10.5426 56.8472 10.8405C57.4241 11.1254 57.8436 11.3974 58.1059 11.6564L56.7686 15.1534C56.1655 14.7001 55.4706 14.318 54.684 14.0072C53.9104 13.6834 53.1107 13.5215 52.2847 13.5215C51.3014 13.5215 50.6066 13.651 50.2001 13.91C49.8068 14.1561 49.6102 14.5706 49.6102 15.1534C49.6102 15.7362 49.8986 16.2219 50.4755 16.6104C51.0654 16.999 51.9701 17.4329 53.1894 17.9121C54.9462 18.5985 56.2966 19.4145 57.2406 20.3599C58.1845 21.2924 58.6565 22.4322 58.6565 23.7791C58.6565 24.9059 58.3943 25.9291 57.8699 26.8487C57.3585 27.7553 56.5391 28.487 55.4116 29.044C54.2972 29.6009 52.8747 29.8793 51.1441 29.8793Z" fill="#4A00E8"/>
<path d="M66.8975 30.0736C65.7306 30.0736 64.7473 29.8146 63.9476 29.2965C63.1478 28.7785 62.5447 28.0791 62.1383 27.1984C61.745 26.3177 61.5483 25.3333 61.5483 24.2454C61.5483 23.2999 61.863 22.3609 62.4923 21.4284C63.1347 20.483 64.2688 19.68 65.8945 19.0194C67.5202 18.3589 69.7163 18.0286 72.4826 18.0286V17.135C72.4826 16.0729 72.2204 15.2505 71.696 14.6677C71.1846 14.0849 70.28 13.7935 68.9821 13.7935C67.9594 13.7935 66.9565 13.9683 65.9732 14.318C65.003 14.6547 64.2884 15.0757 63.8296 15.5808L62.2563 11.8507C63.1478 11.2549 64.2557 10.7498 65.5798 10.3354C66.904 9.92093 68.3134 9.7137 69.808 9.7137C71.6829 9.7137 73.1644 9.99864 74.2525 10.5685C75.3538 11.1384 76.1274 11.9414 76.5731 12.9775C77.0189 14.0136 77.2418 15.2958 77.2418 16.8241V29.5297H73.0332L72.6793 26.771C71.9844 27.8848 71.1584 28.7137 70.2013 29.2577C69.2574 29.8016 68.1561 30.0736 66.8975 30.0736ZM68.9821 26.3436C69.5852 26.3436 70.221 26.104 70.8897 25.6247C71.5583 25.1455 72.0893 24.5433 72.4826 23.818V21.0593C72.2991 21.0334 71.9844 21.0205 71.5386 21.0205C70.2145 21.0205 69.0279 21.2406 67.9791 21.681C66.9434 22.1084 66.4255 22.8078 66.4255 23.7791C66.4255 24.6987 66.6287 25.3592 67.0351 25.7607C67.4547 26.1493 68.1036 26.3436 68.9821 26.3436Z" fill="#4A00E8"/>
<path d="M104.305 9.7137C106.232 9.7137 107.687 10.3289 108.671 11.5593C109.667 12.7768 110.165 14.5058 110.165 16.7464V29.5297H105.17V17.2515C105.17 16.1247 104.947 15.244 104.502 14.6094C104.069 13.9618 103.4 13.638 102.496 13.638C101.879 13.638 101.289 13.7935 100.726 14.1043C100.175 14.4151 99.7293 14.849 99.3884 15.4059C99.0475 15.9499 98.8771 16.5651 98.8771 17.2515V29.5297H93.8426V17.2515C93.8426 16.1506 93.5935 15.2635 93.0953 14.59C92.6102 13.9035 91.9153 13.5603 91.0107 13.5603C90.3814 13.5603 89.8045 13.7222 89.2801 14.046C88.7557 14.3568 88.3361 14.7972 88.0215 15.3671C87.7068 15.924 87.5495 16.5521 87.5495 17.2515V29.5297H82.515V10.18H87.0382L87.1562 12.7444C88.4804 10.7239 90.4076 9.7137 92.938 9.7137C94.249 9.7137 95.3438 9.99864 96.2222 10.5685C97.1137 11.1384 97.7824 11.9673 98.2281 13.0552C99.5654 10.8275 101.591 9.7137 104.305 9.7137Z" fill="#4A00E8"/>
<path d="M115.895 10.18H120.576V10.8016L120.182 13.5215C120.34 12.7962 120.694 12.1421 121.244 11.5593C121.808 10.9765 122.496 10.5167 123.309 10.18C124.122 9.84322 124.968 9.67485 125.846 9.67485C128.363 9.67485 130.238 10.5491 131.471 12.2975C132.703 14.0331 133.319 16.4615 133.319 19.5828C133.319 21.7975 132.992 23.695 132.336 25.2751C131.68 26.8422 130.763 28.0337 129.583 28.8497C128.403 29.6656 127.026 30.0736 125.453 30.0736C124.089 30.0736 122.955 29.6592 122.051 28.8303C121.146 27.9884 120.523 26.9393 120.182 25.683L120.654 29.3354V38H115.895V10.18ZM124.312 26.227C124.981 26.227 125.604 26.0068 126.181 25.5665C126.771 25.1261 127.249 24.4267 127.616 23.4683C127.983 22.4969 128.167 21.2665 128.167 19.7771C128.167 18.3913 127.996 17.2386 127.655 16.319C127.315 15.3995 126.856 14.726 126.279 14.2986C125.715 13.8582 125.086 13.638 124.391 13.638C123.604 13.638 122.929 13.9165 122.365 14.4734C121.802 15.0303 121.375 15.801 121.087 16.7853C120.799 17.7566 120.654 18.8575 120.654 20.0879C120.654 21.3054 120.799 22.3804 121.087 23.3129C121.389 24.2324 121.815 24.9513 122.365 25.4693C122.916 25.9744 123.565 26.227 124.312 26.227Z" fill="#4A00E8"/>
<path d="M137.981 0H142.78V29.5297H137.981V0Z" fill="#4A00E8"/>
<path d="M155.872 30.0348C153.762 30.0348 152.018 29.5944 150.641 28.7137C149.265 27.82 148.255 26.6285 147.613 25.1391C146.983 23.6496 146.669 21.9659 146.669 20.0879C146.669 18.1711 147.023 16.4291 147.731 14.862C148.452 13.2819 149.501 12.032 150.877 11.1125C152.254 10.18 153.893 9.7137 155.794 9.7137C158.626 9.7137 160.651 10.5232 161.871 12.1421C163.09 13.7481 163.7 16.1506 163.7 19.3497C163.7 19.9714 163.673 20.6708 163.621 21.4479H151.821C151.9 23.015 152.339 24.226 153.139 25.0808C153.952 25.9226 155.138 26.3436 156.698 26.3436C157.511 26.3436 158.383 26.1687 159.314 25.819C160.245 25.4564 160.933 25.0225 161.379 24.5174L162.952 28.2086C161.104 29.426 158.744 30.0348 155.872 30.0348ZM158.704 18.4172C158.704 16.5133 158.462 15.2052 157.977 14.4928C157.505 13.7676 156.816 13.4049 155.912 13.4049C154.64 13.4049 153.65 13.8712 152.942 14.8037C152.247 15.7362 151.861 16.9407 151.782 18.4172H158.704Z" fill="#4A00E8"/>
<path d="M172.256 30.0736C171.09 30.0736 170.106 29.8146 169.306 29.2965C168.507 28.7785 167.904 28.0791 167.497 27.1984C167.104 26.3177 166.907 25.3333 166.907 24.2454C166.907 23.2999 167.222 22.3609 167.851 21.4284C168.494 20.483 169.628 19.68 171.253 19.0194C172.879 18.3589 175.075 18.0286 177.842 18.0286V17.135C177.842 16.0729 177.579 15.2505 177.055 14.6677C176.544 14.0849 175.639 13.7935 174.341 13.7935C173.318 13.7935 172.315 13.9683 171.332 14.318C170.362 14.6547 169.647 15.0757 169.188 15.5808L167.615 11.8507C168.507 11.2549 169.615 10.7498 170.939 10.3354C172.263 9.92093 173.672 9.7137 175.167 9.7137C177.042 9.7137 178.523 9.99864 179.611 10.5685C180.713 11.1384 181.486 11.9414 181.932 12.9775C182.378 14.0136 182.601 15.2958 182.601 16.8241V29.5297H178.392L178.038 26.771C177.343 27.8848 176.517 28.7137 175.56 29.2577C174.616 29.8016 173.515 30.0736 172.256 30.0736ZM174.341 26.3436C174.944 26.3436 175.58 26.104 176.249 25.6247C176.917 25.1455 177.448 24.5433 177.842 23.818V21.0593C177.658 21.0334 177.343 21.0205 176.898 21.0205C175.573 21.0205 174.387 21.2406 173.338 21.681C172.302 22.1084 171.784 22.8078 171.784 23.7791C171.784 24.6987 171.988 25.3592 172.394 25.7607C172.814 26.1493 173.463 26.3436 174.341 26.3436Z" fill="#4A00E8"/>
<path d="M194.442 30.0736C192.869 30.0736 191.492 29.6527 190.313 28.8108C189.146 27.969 188.241 26.7839 187.599 25.2556C186.969 23.7144 186.655 21.9271 186.655 19.8937C186.655 16.6558 187.317 14.1496 188.641 12.3753C189.978 10.6009 191.938 9.7137 194.521 9.7137C195.871 9.7137 197.005 10.044 197.923 10.7045C198.841 11.365 199.438 12.304 199.713 13.5215L199.359 10.6851V0H204V29.5297H199.713V25.5665C199.346 26.9523 198.71 28.0532 197.805 28.8691C196.901 29.6721 195.78 30.0736 194.442 30.0736ZM195.583 26.227C196.239 26.227 196.842 26.0068 197.392 25.5665C197.956 25.1261 198.402 24.4397 198.73 23.5072C199.07 22.5617 199.241 21.3831 199.241 19.9714C199.241 17.925 198.946 16.3579 198.356 15.2699C197.766 14.182 196.881 13.638 195.701 13.638C195.019 13.638 194.377 13.8388 193.774 14.2403C193.184 14.6418 192.692 15.3088 192.299 16.2413C191.919 17.1738 191.728 18.3913 191.728 19.8937C191.728 21.2795 191.892 22.4451 192.22 23.3906C192.561 24.3361 193.02 25.0484 193.597 25.5276C194.187 25.9939 194.849 26.227 195.583 26.227Z" fill="#4A00E8"/>
</svg>
